<svg xmlns="http://www.w3.org/2000/svg" xmlns:xlink="http://www.w3.org/1999/xlink" version="1.1" x="0px" y="0px" viewBox="0 0 100 125" style="enable-background:new 0 0 100 100;" xml:space="preserve"><path d="M95,23.3c0-2.4-1.9-4.3-4.3-4.3H9.3C6.9,19,5,20.9,5,23.3v53.4C5,79.1,6.9,81,9.3,81h81.4c2.4,0,4.3-1.9,4.3-4.3V23.3z   M58.9,49.8c-4.9,4.5-12.6,4.6-17.6,0.1L12,23h76.4L58.9,49.8z M9,25.8l26,23.9L9,74.4V25.8z M38.5,52.4l0.1,0.2  c3.2,3,7.4,4.5,11.5,4.5s8.3-1.5,11.5-4.4l0.1-0.2L88,77H12.4L38.5,52.4z M65,49.7l26-23.9v48.5L65,49.7z"/><text x="0" y="115" fill="#000000" font-size="5px" font-weight="bold" font-family="'Helvetica Neue', Helvetica, Arial-Unicode, Arial, Sans-serif">Created by Samet Kuru</text><text x="0" y="120" fill="#000000" font-size="5px" font-weight="bold" font-family="'Helvetica Neue', Helvetica, Arial-Unicode, Arial, Sans-serif">from the Noun Project</text></svg>